<mxfile host="app.diagrams.net" agent="Mozilla/5.0 (Windows NT 10.0; Win64; x64) AppleWebKit/537.36 (KHTML, like Gecko) Chrome/138.0.0.0 Safari/537.36" version="28.0.4">
  <diagram name="Page-1" id="tv-Pz4Bu6LIs6yfx5zl2">
    <mxGraphModel dx="3107" dy="1943" grid="1" gridSize="10" guides="1" tooltips="1" connect="1" arrows="1" fold="1" page="1" pageScale="1" pageWidth="1400" pageHeight="850" math="0" shadow="0">
      <root>
        <mxCell id="0" />
        <mxCell id="1" parent="0" />
        <mxCell id="4qRLbiXL7dvZ6mp7pHiN-77" value="" style="group;fontSize=30;" vertex="1" connectable="0" parent="1">
          <mxGeometry x="40" y="20" width="2710" height="1620" as="geometry" />
        </mxCell>
        <mxCell id="4qRLbiXL7dvZ6mp7pHiN-1" value="" style="edgeStyle=orthogonalEdgeStyle;rounded=0;orthogonalLoop=1;jettySize=auto;html=1;fontFamily=Helvetica;fontSize=30;fontColor=default;" edge="1" parent="4qRLbiXL7dvZ6mp7pHiN-77" source="4qRLbiXL7dvZ6mp7pHiN-2" target="4qRLbiXL7dvZ6mp7pHiN-3">
          <mxGeometry relative="1" as="geometry" />
        </mxCell>
        <mxCell id="4qRLbiXL7dvZ6mp7pHiN-2" value="1. Domingo (Domanog) Biba&lt;sup&gt;+&lt;/sup&gt; &amp;amp; Emilia (Kuman) Bagni&lt;span&gt;&lt;sup&gt;+&lt;/sup&gt;&lt;/span&gt;&amp;nbsp;(First Wife)&lt;sup&gt;&amp;nbsp;&lt;/sup&gt;" style="rounded=1;whiteSpace=wrap;html=1;strokeColor=#9673a6;fillColor=#e1d5e7;strokeWidth=2;fontSize=30;" vertex="1" parent="4qRLbiXL7dvZ6mp7pHiN-77">
          <mxGeometry x="2086.3493530499077" y="682.1052631578947" width="623.6506469500924" height="85.26315789473684" as="geometry" />
        </mxCell>
        <mxCell id="4qRLbiXL7dvZ6mp7pHiN-3" value="Godfrey (Uyaan) Biba &amp;amp; Luisa Nicanor" style="whiteSpace=wrap;html=1;rounded=1;strokeColor=#9673a6;fillColor=#e1d5e7;strokeWidth=2;fontSize=30;" vertex="1" parent="4qRLbiXL7dvZ6mp7pHiN-77">
          <mxGeometry x="1485.2402957486138" y="682.1052631578947" width="450.8317929759705" height="85.26315789473684" as="geometry" />
        </mxCell>
        <mxCell id="4qRLbiXL7dvZ6mp7pHiN-4" value="Filbert Pacudan &amp;amp; Rhea Paleyan" style="whiteSpace=wrap;html=1;rounded=1;fillColor=#e1d5e7;strokeColor=#9673a6;strokeWidth=2;fontSize=30;" vertex="1" parent="4qRLbiXL7dvZ6mp7pHiN-77">
          <mxGeometry x="350.64695009242143" y="21.31578947368421" width="400.739371534196" height="85.26315789473684" as="geometry" />
        </mxCell>
        <mxCell id="4qRLbiXL7dvZ6mp7pHiN-5" value="" style="edgeStyle=orthogonalEdgeStyle;rounded=0;orthogonalLoop=1;jettySize=auto;html=1;fontSize=30;" edge="1" parent="4qRLbiXL7dvZ6mp7pHiN-77">
          <mxGeometry relative="1" as="geometry">
            <mxPoint x="901.663585951941" y="63.94736842105263" as="sourcePoint" />
            <mxPoint x="751.3863216266175" y="63.94736842105263" as="targetPoint" />
          </mxGeometry>
        </mxCell>
        <mxCell id="4qRLbiXL7dvZ6mp7pHiN-6" value="&lt;font&gt;Rose (Salya) Biba &amp;amp; Gilbert Pacudan&lt;/font&gt;" style="rounded=1;whiteSpace=wrap;html=1;fillColor=#e1d5e7;strokeColor=#9673a6;strokeWidth=2;fontSize=30;" vertex="1" parent="4qRLbiXL7dvZ6mp7pHiN-77">
          <mxGeometry x="901.663585951941" y="21.31578947368421" width="425.78558225508317" height="85.26315789473684" as="geometry" />
        </mxCell>
        <mxCell id="4qRLbiXL7dvZ6mp7pHiN-7" value="" style="edgeStyle=orthogonalEdgeStyle;rounded=0;orthogonalLoop=1;jettySize=auto;html=1;fontFamily=Helvetica;fontSize=30;fontColor=default;" edge="1" parent="4qRLbiXL7dvZ6mp7pHiN-77">
          <mxGeometry relative="1" as="geometry">
            <mxPoint x="901.663585951941" y="191.8421052631579" as="sourcePoint" />
            <mxPoint x="751.3863216266175" y="191.8421052631579" as="targetPoint" />
          </mxGeometry>
        </mxCell>
        <mxCell id="4qRLbiXL7dvZ6mp7pHiN-8" value="&lt;font&gt;Claire (Ugamay) Biba&lt;/font&gt;" style="rounded=1;whiteSpace=wrap;html=1;fillColor=#e1d5e7;strokeColor=#9673a6;strokeWidth=2;fontSize=30;" vertex="1" parent="4qRLbiXL7dvZ6mp7pHiN-77">
          <mxGeometry x="901.663585951941" y="149.21052631578948" width="425.78558225508317" height="85.26315789473684" as="geometry" />
        </mxCell>
        <mxCell id="4qRLbiXL7dvZ6mp7pHiN-9" value="&lt;span&gt;Jacob (Bantas) Biba &amp;amp; Anne Badongen&lt;/span&gt;" style="rounded=1;whiteSpace=wrap;html=1;fillColor=#e1d5e7;strokeColor=#9673a6;strokeWidth=2;fontSize=30;" vertex="1" parent="4qRLbiXL7dvZ6mp7pHiN-77">
          <mxGeometry x="901.663585951941" y="383.6842105263158" width="425.78558225508317" height="85.26315789473684" as="geometry" />
        </mxCell>
        <mxCell id="4qRLbiXL7dvZ6mp7pHiN-10" value="May Joy Biba &amp;amp; Francis Deyan" style="rounded=1;whiteSpace=wrap;html=1;fillColor=#e1d5e7;strokeColor=#9673a6;strokeWidth=2;fontSize=30;" vertex="1" parent="4qRLbiXL7dvZ6mp7pHiN-77">
          <mxGeometry x="350.64695009242143" y="149.21052631578948" width="400.739371534196" height="85.26315789473684" as="geometry" />
        </mxCell>
        <mxCell id="4qRLbiXL7dvZ6mp7pHiN-11" value="" style="edgeStyle=orthogonalEdgeStyle;rounded=0;orthogonalLoop=1;jettySize=auto;html=1;fontFamily=Helvetica;fontSize=30;fontColor=default;" edge="1" parent="4qRLbiXL7dvZ6mp7pHiN-77" source="4qRLbiXL7dvZ6mp7pHiN-12" target="4qRLbiXL7dvZ6mp7pHiN-23">
          <mxGeometry relative="1" as="geometry" />
        </mxCell>
        <mxCell id="4qRLbiXL7dvZ6mp7pHiN-12" value="&lt;span&gt;Godfrey Jr. (Marcelo) Biba&lt;/span&gt;" style="rounded=1;whiteSpace=wrap;html=1;fillColor=#e1d5e7;strokeColor=#9673a6;strokeWidth=2;fontSize=30;" vertex="1" parent="4qRLbiXL7dvZ6mp7pHiN-77">
          <mxGeometry x="901.663585951941" y="1534.7368421052631" width="425.78558225508317" height="85.26315789473684" as="geometry" />
        </mxCell>
        <mxCell id="4qRLbiXL7dvZ6mp7pHiN-13" value="&lt;font&gt;Emilia Biba &amp;amp; David Soliba&lt;/font&gt;" style="rounded=1;whiteSpace=wrap;html=1;fillColor=#e1d5e7;strokeColor=#9673a6;strokeWidth=2;fontSize=30;" vertex="1" parent="4qRLbiXL7dvZ6mp7pHiN-77">
          <mxGeometry x="909.1774491682071" y="1023.1578947368421" width="420.7763401109058" height="85.26315789473684" as="geometry" />
        </mxCell>
        <mxCell id="4qRLbiXL7dvZ6mp7pHiN-14" value="&lt;font&gt;Christina Biba &amp;amp; Christopher Banglo&lt;/font&gt;" style="rounded=1;whiteSpace=wrap;html=1;fillColor=#e1d5e7;strokeColor=#9673a6;strokeWidth=2;fontSize=30;" vertex="1" parent="4qRLbiXL7dvZ6mp7pHiN-77">
          <mxGeometry x="901.663585951941" y="1364.2105263157894" width="425.78558225508317" height="85.26315789473684" as="geometry" />
        </mxCell>
        <mxCell id="4qRLbiXL7dvZ6mp7pHiN-15" value="&lt;span&gt;Lisa Faith (Linsa)&lt;/span&gt;" style="rounded=1;whiteSpace=wrap;html=1;fillColor=#e1d5e7;strokeColor=#9673a6;strokeWidth=2;fontSize=30;" vertex="1" parent="4qRLbiXL7dvZ6mp7pHiN-77">
          <mxGeometry x="350.64695009242143" y="874.7573684210527" width="400.739371534196" height="42.63157894736842" as="geometry" />
        </mxCell>
        <mxCell id="4qRLbiXL7dvZ6mp7pHiN-16" value="&lt;span&gt;Salya Rose (Salya)&lt;/span&gt;" style="rounded=1;whiteSpace=wrap;html=1;fillColor=#e1d5e7;strokeColor=#9673a6;strokeWidth=2;fontSize=30;" vertex="1" parent="4qRLbiXL7dvZ6mp7pHiN-77">
          <mxGeometry x="350.64695009242143" y="960.0205263157894" width="400.739371534196" height="42.63157894736842" as="geometry" />
        </mxCell>
        <mxCell id="4qRLbiXL7dvZ6mp7pHiN-17" value="&lt;span&gt;David Jr. (Bantilok)&lt;/span&gt;" style="rounded=1;whiteSpace=wrap;html=1;fillColor=#e1d5e7;strokeColor=#9673a6;strokeWidth=2;fontSize=30;" vertex="1" parent="4qRLbiXL7dvZ6mp7pHiN-77">
          <mxGeometry x="350.64695009242143" y="1046.0936842105264" width="400.739371534196" height="42.63157894736842" as="geometry" />
        </mxCell>
        <mxCell id="4qRLbiXL7dvZ6mp7pHiN-18" value="&lt;span&gt;Greg (Soliba)&lt;/span&gt;" style="rounded=1;whiteSpace=wrap;html=1;fillColor=#e1d5e7;strokeColor=#9673a6;strokeWidth=2;fontSize=30;" vertex="1" parent="4qRLbiXL7dvZ6mp7pHiN-77">
          <mxGeometry x="350.64695009242143" y="1131.356842105263" width="400.739371534196" height="42.63157894736842" as="geometry" />
        </mxCell>
        <mxCell id="4qRLbiXL7dvZ6mp7pHiN-19" value="&lt;span&gt;Jane (Kalog-id)&lt;/span&gt;" style="rounded=1;whiteSpace=wrap;html=1;fillColor=#e1d5e7;strokeColor=#9673a6;strokeWidth=2;fontSize=30;" vertex="1" parent="4qRLbiXL7dvZ6mp7pHiN-77">
          <mxGeometry x="350.64695009242143" y="1215.81" width="400.739371534196" height="42.63157894736842" as="geometry" />
        </mxCell>
        <mxCell id="4qRLbiXL7dvZ6mp7pHiN-20" value="&lt;span&gt;Maine Aesop (Lumina)&lt;/span&gt;" style="rounded=1;whiteSpace=wrap;html=1;fillColor=#e1d5e7;strokeColor=#9673a6;strokeWidth=2;fontSize=30;" vertex="1" parent="4qRLbiXL7dvZ6mp7pHiN-77">
          <mxGeometry x="350.64695009242143" y="1300.2631578947369" width="400.739371534196" height="42.63157894736842" as="geometry" />
        </mxCell>
        <mxCell id="4qRLbiXL7dvZ6mp7pHiN-21" value="&lt;span&gt;Exl Rye&lt;/span&gt;" style="rounded=1;whiteSpace=wrap;html=1;fillColor=#e1d5e7;strokeColor=#9673a6;strokeWidth=2;fontSize=30;" vertex="1" parent="4qRLbiXL7dvZ6mp7pHiN-77">
          <mxGeometry x="350.64695009242143" y="1385.5263157894738" width="400.739371534196" height="42.63157894736842" as="geometry" />
        </mxCell>
        <mxCell id="4qRLbiXL7dvZ6mp7pHiN-22" value="&lt;span&gt;Chris Jansen&lt;/span&gt;" style="rounded=1;whiteSpace=wrap;html=1;fillColor=#e1d5e7;strokeColor=#9673a6;strokeWidth=2;fontSize=30;" vertex="1" parent="4qRLbiXL7dvZ6mp7pHiN-77">
          <mxGeometry x="350.64695009242143" y="1470.7894736842104" width="400.739371534196" height="42.63157894736842" as="geometry" />
        </mxCell>
        <mxCell id="4qRLbiXL7dvZ6mp7pHiN-23" value="&lt;span&gt;RJ&lt;/span&gt;" style="rounded=1;whiteSpace=wrap;html=1;fillColor=#e1d5e7;strokeColor=#9673a6;strokeWidth=2;fontSize=30;" vertex="1" parent="4qRLbiXL7dvZ6mp7pHiN-77">
          <mxGeometry x="350.64695009242143" y="1556.0526315789473" width="400.739371534196" height="42.63157894736842" as="geometry" />
        </mxCell>
        <mxCell id="4qRLbiXL7dvZ6mp7pHiN-24" value="" style="endArrow=none;html=1;rounded=0;fontFamily=Helvetica;fontSize=30;fontColor=default;" edge="1" parent="4qRLbiXL7dvZ6mp7pHiN-77">
          <mxGeometry width="50" height="50" relative="1" as="geometry">
            <mxPoint x="826.5249537892792" y="426.3157894736842" as="sourcePoint" />
            <mxPoint x="901.663585951941" y="426.3157894736842" as="targetPoint" />
          </mxGeometry>
        </mxCell>
        <mxCell id="4qRLbiXL7dvZ6mp7pHiN-25" value="" style="endArrow=none;html=1;rounded=0;fontFamily=Helvetica;fontSize=30;fontColor=default;entryX=0;entryY=0.5;entryDx=0;entryDy=0;" edge="1" parent="4qRLbiXL7dvZ6mp7pHiN-77">
          <mxGeometry width="50" height="50" relative="1" as="geometry">
            <mxPoint x="826.5249537892792" y="1406.842105263158" as="sourcePoint" />
            <mxPoint x="901.6635859519403" y="1406.16" as="targetPoint" />
          </mxGeometry>
        </mxCell>
        <mxCell id="4qRLbiXL7dvZ6mp7pHiN-26" value="" style="endArrow=classic;html=1;rounded=0;fontFamily=Helvetica;fontSize=30;fontColor=default;entryX=1;entryY=0.5;entryDx=0;entryDy=0;" edge="1" parent="4qRLbiXL7dvZ6mp7pHiN-77">
          <mxGeometry width="50" height="50" relative="1" as="geometry">
            <mxPoint x="826.5249537892792" y="895.4336842105262" as="sourcePoint" />
            <mxPoint x="751.3863216266175" y="895.4336842105262" as="targetPoint" />
          </mxGeometry>
        </mxCell>
        <mxCell id="4qRLbiXL7dvZ6mp7pHiN-27" value="" style="endArrow=classic;html=1;rounded=0;fontFamily=Helvetica;fontSize=30;fontColor=default;entryX=1;entryY=0.5;entryDx=0;entryDy=0;" edge="1" parent="4qRLbiXL7dvZ6mp7pHiN-77">
          <mxGeometry width="50" height="50" relative="1" as="geometry">
            <mxPoint x="826.5249537892792" y="980.6968421052629" as="sourcePoint" />
            <mxPoint x="751.3863216266175" y="980.6968421052629" as="targetPoint" />
          </mxGeometry>
        </mxCell>
        <mxCell id="4qRLbiXL7dvZ6mp7pHiN-28" value="" style="endArrow=classic;html=1;rounded=0;fontFamily=Helvetica;fontSize=30;fontColor=default;entryX=1;entryY=0.5;entryDx=0;entryDy=0;" edge="1" parent="4qRLbiXL7dvZ6mp7pHiN-77">
          <mxGeometry width="50" height="50" relative="1" as="geometry">
            <mxPoint x="825.7735674676527" y="1066.2157894736843" as="sourcePoint" />
            <mxPoint x="750.634935304991" y="1066.2157894736843" as="targetPoint" />
          </mxGeometry>
        </mxCell>
        <mxCell id="4qRLbiXL7dvZ6mp7pHiN-29" value="" style="endArrow=classic;html=1;rounded=0;fontFamily=Helvetica;fontSize=30;fontColor=default;entryX=1;entryY=0.5;entryDx=0;entryDy=0;" edge="1" parent="4qRLbiXL7dvZ6mp7pHiN-77">
          <mxGeometry width="50" height="50" relative="1" as="geometry">
            <mxPoint x="826.5249537892792" y="1152.0331578947366" as="sourcePoint" />
            <mxPoint x="751.3863216266175" y="1152.0331578947366" as="targetPoint" />
          </mxGeometry>
        </mxCell>
        <mxCell id="4qRLbiXL7dvZ6mp7pHiN-30" value="" style="endArrow=classic;html=1;rounded=0;fontFamily=Helvetica;fontSize=30;fontColor=default;entryX=1;entryY=0.5;entryDx=0;entryDy=0;" edge="1" parent="4qRLbiXL7dvZ6mp7pHiN-77">
          <mxGeometry width="50" height="50" relative="1" as="geometry">
            <mxPoint x="826.5249537892792" y="1236.4863157894738" as="sourcePoint" />
            <mxPoint x="751.3863216266175" y="1236.4863157894738" as="targetPoint" />
          </mxGeometry>
        </mxCell>
        <mxCell id="4qRLbiXL7dvZ6mp7pHiN-31" value="" style="endArrow=none;html=1;rounded=0;fontFamily=Helvetica;fontSize=30;fontColor=default;" edge="1" parent="4qRLbiXL7dvZ6mp7pHiN-77">
          <mxGeometry width="50" height="50" relative="1" as="geometry">
            <mxPoint x="826.5249537892792" y="1065.7894736842106" as="sourcePoint" />
            <mxPoint x="901.663585951941" y="1066.173157894737" as="targetPoint" />
          </mxGeometry>
        </mxCell>
        <mxCell id="4qRLbiXL7dvZ6mp7pHiN-32" value="" style="endArrow=none;html=1;rounded=0;fontFamily=Helvetica;fontSize=30;fontColor=default;" edge="1" parent="4qRLbiXL7dvZ6mp7pHiN-77">
          <mxGeometry width="50" height="50" relative="1" as="geometry">
            <mxPoint x="826.5249537892792" y="1237.9357894736843" as="sourcePoint" />
            <mxPoint x="826.5249537892792" y="1110.0410526315789" as="targetPoint" />
            <Array as="points">
              <mxPoint x="826.5249537892792" y="1110.0410526315789" />
              <mxPoint x="826.5249537892792" y="896.0731578947368" />
            </Array>
          </mxGeometry>
        </mxCell>
        <mxCell id="4qRLbiXL7dvZ6mp7pHiN-33" value="" style="endArrow=none;html=1;rounded=0;fontFamily=Helvetica;fontSize=30;fontColor=default;" edge="1" parent="4qRLbiXL7dvZ6mp7pHiN-77">
          <mxGeometry width="50" height="50" relative="1" as="geometry">
            <mxPoint x="826.5249537892792" y="1492.510263157895" as="sourcePoint" />
            <mxPoint x="826.5249537892792" y="1364.6155263157898" as="targetPoint" />
            <Array as="points">
              <mxPoint x="826.5249537892792" y="1364.6155263157898" />
              <mxPoint x="826.5249537892792" y="1321.578947368421" />
            </Array>
          </mxGeometry>
        </mxCell>
        <mxCell id="4qRLbiXL7dvZ6mp7pHiN-34" value="" style="endArrow=classic;html=1;rounded=0;fontFamily=Helvetica;fontSize=30;fontColor=default;entryX=1;entryY=0.5;entryDx=0;entryDy=0;" edge="1" parent="4qRLbiXL7dvZ6mp7pHiN-77">
          <mxGeometry width="50" height="50" relative="1" as="geometry">
            <mxPoint x="826.5249537892792" y="1321.0673684210526" as="sourcePoint" />
            <mxPoint x="751.3863216266175" y="1321.0673684210526" as="targetPoint" />
          </mxGeometry>
        </mxCell>
        <mxCell id="4qRLbiXL7dvZ6mp7pHiN-35" value="" style="endArrow=classic;html=1;rounded=0;fontFamily=Helvetica;fontSize=30;fontColor=default;entryX=1;entryY=0.5;entryDx=0;entryDy=0;" edge="1" parent="4qRLbiXL7dvZ6mp7pHiN-77">
          <mxGeometry width="50" height="50" relative="1" as="geometry">
            <mxPoint x="826.5249537892792" y="1406.3305263157895" as="sourcePoint" />
            <mxPoint x="751.3863216266175" y="1406.3305263157895" as="targetPoint" />
          </mxGeometry>
        </mxCell>
        <mxCell id="4qRLbiXL7dvZ6mp7pHiN-36" value="" style="endArrow=classic;html=1;rounded=0;fontFamily=Helvetica;fontSize=30;fontColor=default;entryX=1;entryY=0.5;entryDx=0;entryDy=0;" edge="1" parent="4qRLbiXL7dvZ6mp7pHiN-77">
          <mxGeometry width="50" height="50" relative="1" as="geometry">
            <mxPoint x="826.5249537892792" y="1491.5936842105264" as="sourcePoint" />
            <mxPoint x="751.3863216266175" y="1491.5936842105264" as="targetPoint" />
          </mxGeometry>
        </mxCell>
        <mxCell id="4qRLbiXL7dvZ6mp7pHiN-37" value="&lt;span&gt;Jason (Uyaan)&lt;/span&gt;" style="rounded=1;whiteSpace=wrap;html=1;fillColor=#e1d5e7;strokeColor=#9673a6;strokeWidth=2;fontSize=30;" vertex="1" parent="4qRLbiXL7dvZ6mp7pHiN-77">
          <mxGeometry x="350.64695009242143" y="277.10526315789474" width="400.739371534196" height="42.63157894736842" as="geometry" />
        </mxCell>
        <mxCell id="4qRLbiXL7dvZ6mp7pHiN-38" value="&lt;span&gt;Godfrey III (Domanog)&lt;/span&gt;" style="rounded=1;whiteSpace=wrap;html=1;fillColor=#e1d5e7;strokeColor=#9673a6;strokeWidth=2;fontSize=30;" vertex="1" parent="4qRLbiXL7dvZ6mp7pHiN-77">
          <mxGeometry x="350.64695009242143" y="363.1784210526316" width="400.739371534196" height="42.63157894736842" as="geometry" />
        </mxCell>
        <mxCell id="4qRLbiXL7dvZ6mp7pHiN-39" value="&lt;span&gt;Lumas-i John (Lumas-i)&lt;/span&gt;" style="rounded=1;whiteSpace=wrap;html=1;fillColor=#e1d5e7;strokeColor=#9673a6;strokeWidth=2;fontSize=30;" vertex="1" parent="4qRLbiXL7dvZ6mp7pHiN-77">
          <mxGeometry x="350.64695009242143" y="447.63157894736844" width="400.739371534196" height="42.63157894736842" as="geometry" />
        </mxCell>
        <mxCell id="4qRLbiXL7dvZ6mp7pHiN-40" value="&lt;span&gt;Jacob Jr. (Santiago)&lt;/span&gt;" style="rounded=1;whiteSpace=wrap;html=1;fillColor=#e1d5e7;strokeColor=#9673a6;strokeWidth=2;fontSize=30;" vertex="1" parent="4qRLbiXL7dvZ6mp7pHiN-77">
          <mxGeometry x="350.64695009242143" y="532.8947368421053" width="400.739371534196" height="42.63157894736842" as="geometry" />
        </mxCell>
        <mxCell id="4qRLbiXL7dvZ6mp7pHiN-41" value="" style="endArrow=none;html=1;rounded=0;fontFamily=Helvetica;fontSize=30;fontColor=default;" edge="1" parent="4qRLbiXL7dvZ6mp7pHiN-77">
          <mxGeometry width="50" height="50" relative="1" as="geometry">
            <mxPoint x="826.5249537892792" y="426.3157894736842" as="sourcePoint" />
            <mxPoint x="826.5249537892792" y="298.42105263157896" as="targetPoint" />
          </mxGeometry>
        </mxCell>
        <mxCell id="4qRLbiXL7dvZ6mp7pHiN-42" value="" style="endArrow=none;html=1;rounded=0;fontFamily=Helvetica;fontSize=30;fontColor=default;" edge="1" parent="4qRLbiXL7dvZ6mp7pHiN-77">
          <mxGeometry width="50" height="50" relative="1" as="geometry">
            <mxPoint x="826.5249537892792" y="554.2105263157895" as="sourcePoint" />
            <mxPoint x="826.5249537892792" y="426.3157894736842" as="targetPoint" />
            <Array as="points">
              <mxPoint x="826.5249537892792" y="426.3157894736842" />
            </Array>
          </mxGeometry>
        </mxCell>
        <mxCell id="4qRLbiXL7dvZ6mp7pHiN-43" value="" style="endArrow=classic;html=1;rounded=0;fontFamily=Helvetica;fontSize=30;fontColor=default;entryX=1;entryY=0.5;entryDx=0;entryDy=0;" edge="1" parent="4qRLbiXL7dvZ6mp7pHiN-77" target="4qRLbiXL7dvZ6mp7pHiN-37">
          <mxGeometry width="50" height="50" relative="1" as="geometry">
            <mxPoint x="826.5249537892792" y="298.42105263157896" as="sourcePoint" />
            <mxPoint x="1026.8946395563771" y="426.3157894736842" as="targetPoint" />
          </mxGeometry>
        </mxCell>
        <mxCell id="4qRLbiXL7dvZ6mp7pHiN-44" value="" style="endArrow=classic;html=1;rounded=0;fontFamily=Helvetica;fontSize=30;fontColor=default;entryX=1;entryY=0.5;entryDx=0;entryDy=0;" edge="1" parent="4qRLbiXL7dvZ6mp7pHiN-77">
          <mxGeometry width="50" height="50" relative="1" as="geometry">
            <mxPoint x="826.5249537892792" y="383.6842105263158" as="sourcePoint" />
            <mxPoint x="751.3863216266175" y="383.6842105263158" as="targetPoint" />
          </mxGeometry>
        </mxCell>
        <mxCell id="4qRLbiXL7dvZ6mp7pHiN-45" value="" style="endArrow=classic;html=1;rounded=0;fontFamily=Helvetica;fontSize=30;fontColor=default;entryX=1;entryY=0.5;entryDx=0;entryDy=0;" edge="1" parent="4qRLbiXL7dvZ6mp7pHiN-77">
          <mxGeometry width="50" height="50" relative="1" as="geometry">
            <mxPoint x="826.5249537892792" y="468.9473684210526" as="sourcePoint" />
            <mxPoint x="751.3863216266175" y="468.9473684210526" as="targetPoint" />
          </mxGeometry>
        </mxCell>
        <mxCell id="4qRLbiXL7dvZ6mp7pHiN-46" value="" style="endArrow=classic;html=1;rounded=0;fontFamily=Helvetica;fontSize=30;fontColor=default;entryX=1;entryY=0.5;entryDx=0;entryDy=0;" edge="1" parent="4qRLbiXL7dvZ6mp7pHiN-77">
          <mxGeometry width="50" height="50" relative="1" as="geometry">
            <mxPoint x="826.5249537892792" y="553.6350000000001" as="sourcePoint" />
            <mxPoint x="751.3863216266175" y="553.6350000000001" as="targetPoint" />
          </mxGeometry>
        </mxCell>
        <mxCell id="4qRLbiXL7dvZ6mp7pHiN-47" value="&lt;span&gt;Abraham&lt;/span&gt;" style="rounded=1;whiteSpace=wrap;html=1;fillColor=#e1d5e7;strokeColor=#9673a6;strokeWidth=2;fontSize=30;" vertex="1" parent="4qRLbiXL7dvZ6mp7pHiN-77">
          <mxGeometry x="350.64695009242143" y="618.1578947368421" width="399.9879852125693" height="42.63157894736842" as="geometry" />
        </mxCell>
        <mxCell id="4qRLbiXL7dvZ6mp7pHiN-48" value="&lt;span&gt;Katheryn Clyn&lt;/span&gt;" style="rounded=1;whiteSpace=wrap;html=1;fillColor=#e1d5e7;strokeColor=#9673a6;strokeWidth=2;fontSize=30;" vertex="1" parent="4qRLbiXL7dvZ6mp7pHiN-77">
          <mxGeometry x="350.64695009242143" y="703.421052631579" width="399.9879852125693" height="42.63157894736842" as="geometry" />
        </mxCell>
        <mxCell id="4qRLbiXL7dvZ6mp7pHiN-49" value="&lt;span&gt;Alexander&lt;/span&gt;" style="rounded=1;whiteSpace=wrap;html=1;fillColor=#e1d5e7;strokeColor=#9673a6;strokeWidth=2;fontSize=30;" vertex="1" parent="4qRLbiXL7dvZ6mp7pHiN-77">
          <mxGeometry x="350.64695009242143" y="788.6842105263157" width="399.9879852125693" height="42.63157894736842" as="geometry" />
        </mxCell>
        <mxCell id="4qRLbiXL7dvZ6mp7pHiN-50" value="&lt;font&gt;Jenelyn (Conyap) Biba &amp;amp; Clint Kitongan&lt;/font&gt;" style="rounded=1;whiteSpace=wrap;html=1;fillColor=#e1d5e7;strokeColor=#9673a6;strokeWidth=2;fontSize=30;" vertex="1" parent="4qRLbiXL7dvZ6mp7pHiN-77">
          <mxGeometry x="906.6728280961183" y="682.1052631578947" width="425.78558225508317" height="85.26315789473684" as="geometry" />
        </mxCell>
        <mxCell id="4qRLbiXL7dvZ6mp7pHiN-51" value="" style="endArrow=classic;html=1;rounded=0;fontFamily=Helvetica;fontSize=30;fontColor=default;entryX=1;entryY=0.5;entryDx=0;entryDy=0;" edge="1" parent="4qRLbiXL7dvZ6mp7pHiN-77">
          <mxGeometry width="50" height="50" relative="1" as="geometry">
            <mxPoint x="825.7735674676527" y="639.0686842105263" as="sourcePoint" />
            <mxPoint x="750.634935304991" y="639.0686842105263" as="targetPoint" />
          </mxGeometry>
        </mxCell>
        <mxCell id="4qRLbiXL7dvZ6mp7pHiN-52" value="" style="endArrow=classic;html=1;rounded=0;fontFamily=Helvetica;fontSize=30;fontColor=default;entryX=1;entryY=0.5;entryDx=0;entryDy=0;" edge="1" parent="4qRLbiXL7dvZ6mp7pHiN-77">
          <mxGeometry width="50" height="50" relative="1" as="geometry">
            <mxPoint x="825.7735674676527" y="724.331842105263" as="sourcePoint" />
            <mxPoint x="750.634935304991" y="724.331842105263" as="targetPoint" />
          </mxGeometry>
        </mxCell>
        <mxCell id="4qRLbiXL7dvZ6mp7pHiN-53" value="" style="endArrow=classic;html=1;rounded=0;fontFamily=Helvetica;fontSize=30;fontColor=default;entryX=1;entryY=0.5;entryDx=0;entryDy=0;" edge="1" parent="4qRLbiXL7dvZ6mp7pHiN-77">
          <mxGeometry width="50" height="50" relative="1" as="geometry">
            <mxPoint x="825.7735674676527" y="809.5949999999999" as="sourcePoint" />
            <mxPoint x="750.634935304991" y="809.5949999999999" as="targetPoint" />
          </mxGeometry>
        </mxCell>
        <mxCell id="4qRLbiXL7dvZ6mp7pHiN-54" value="" style="endArrow=none;html=1;rounded=0;fontFamily=Helvetica;fontSize=30;fontColor=default;" edge="1" parent="4qRLbiXL7dvZ6mp7pHiN-77">
          <mxGeometry width="50" height="50" relative="1" as="geometry">
            <mxPoint x="825.7735674676527" y="810" as="sourcePoint" />
            <mxPoint x="825.7735674676527" y="682.1052631578947" as="targetPoint" />
            <Array as="points">
              <mxPoint x="825.7735674676527" y="682.1052631578947" />
              <mxPoint x="825.7735674676527" y="639.4736842105264" />
            </Array>
          </mxGeometry>
        </mxCell>
        <mxCell id="4qRLbiXL7dvZ6mp7pHiN-55" value="" style="endArrow=none;html=1;rounded=0;fontFamily=Helvetica;fontSize=30;fontColor=default;" edge="1" parent="4qRLbiXL7dvZ6mp7pHiN-77">
          <mxGeometry width="50" height="50" relative="1" as="geometry">
            <mxPoint x="826.5249537892792" y="724.7368421052631" as="sourcePoint" />
            <mxPoint x="901.663585951941" y="724.0973684210528" as="targetPoint" />
          </mxGeometry>
        </mxCell>
        <mxCell id="4qRLbiXL7dvZ6mp7pHiN-56" value="" style="endArrow=classic;html=1;rounded=0;fontFamily=Helvetica;fontSize=30;fontColor=default;" edge="1" parent="4qRLbiXL7dvZ6mp7pHiN-77">
          <mxGeometry width="50" height="50" relative="1" as="geometry">
            <mxPoint x="1402.5878003696857" y="724.4810526315789" as="sourcePoint" />
            <mxPoint x="1334.9630314232904" y="724.7368421052631" as="targetPoint" />
          </mxGeometry>
        </mxCell>
        <mxCell id="4qRLbiXL7dvZ6mp7pHiN-57" value="" style="endArrow=classic;html=1;rounded=0;fontFamily=Helvetica;fontSize=30;fontColor=default;entryX=1;entryY=0.5;entryDx=0;entryDy=0;" edge="1" parent="4qRLbiXL7dvZ6mp7pHiN-77">
          <mxGeometry width="50" height="50" relative="1" as="geometry">
            <mxPoint x="1402.5878003696857" y="425.9321052631578" as="sourcePoint" />
            <mxPoint x="1327.449168207024" y="425.9321052631578" as="targetPoint" />
          </mxGeometry>
        </mxCell>
        <mxCell id="4qRLbiXL7dvZ6mp7pHiN-58" value="" style="endArrow=classic;html=1;rounded=0;fontFamily=Helvetica;fontSize=30;fontColor=default;entryX=1;entryY=0.5;entryDx=0;entryDy=0;" edge="1" parent="4qRLbiXL7dvZ6mp7pHiN-77">
          <mxGeometry width="50" height="50" relative="1" as="geometry">
            <mxPoint x="1402.5878003696857" y="191.45842105263145" as="sourcePoint" />
            <mxPoint x="1327.449168207024" y="191.45842105263145" as="targetPoint" />
          </mxGeometry>
        </mxCell>
        <mxCell id="4qRLbiXL7dvZ6mp7pHiN-59" value="" style="endArrow=classic;html=1;rounded=0;fontFamily=Helvetica;fontSize=30;fontColor=default;entryX=1;entryY=0.5;entryDx=0;entryDy=0;" edge="1" parent="4qRLbiXL7dvZ6mp7pHiN-77">
          <mxGeometry width="50" height="50" relative="1" as="geometry">
            <mxPoint x="1402.5878003696857" y="63.563684210526176" as="sourcePoint" />
            <mxPoint x="1327.449168207024" y="63.563684210526176" as="targetPoint" />
          </mxGeometry>
        </mxCell>
        <mxCell id="4qRLbiXL7dvZ6mp7pHiN-60" value="" style="endArrow=classic;html=1;rounded=0;fontFamily=Helvetica;fontSize=30;fontColor=default;entryX=1;entryY=0.5;entryDx=0;entryDy=0;" edge="1" parent="4qRLbiXL7dvZ6mp7pHiN-77">
          <mxGeometry width="50" height="50" relative="1" as="geometry">
            <mxPoint x="1402.5878003696857" y="1065.5763157894737" as="sourcePoint" />
            <mxPoint x="1327.449168207024" y="1065.5763157894737" as="targetPoint" />
          </mxGeometry>
        </mxCell>
        <mxCell id="4qRLbiXL7dvZ6mp7pHiN-61" value="" style="endArrow=none;html=1;rounded=0;fontFamily=Helvetica;fontSize=30;fontColor=default;" edge="1" parent="4qRLbiXL7dvZ6mp7pHiN-77">
          <mxGeometry width="50" height="50" relative="1" as="geometry">
            <mxPoint x="1402.5878003696857" y="724.7368421052631" as="sourcePoint" />
            <mxPoint x="1477.7264325323476" y="724.1826315789474" as="targetPoint" />
          </mxGeometry>
        </mxCell>
        <mxCell id="4qRLbiXL7dvZ6mp7pHiN-62" value="" style="endArrow=none;html=1;rounded=0;fontFamily=Helvetica;fontSize=30;fontColor=default;" edge="1" parent="4qRLbiXL7dvZ6mp7pHiN-77">
          <mxGeometry width="50" height="50" relative="1" as="geometry">
            <mxPoint x="1402.5878003696857" y="1577.3684210526314" as="sourcePoint" />
            <mxPoint x="1402.5878003696857" y="596.8421052631579" as="targetPoint" />
            <Array as="points">
              <mxPoint x="1402.5878003696857" y="63.94736842105263" />
            </Array>
          </mxGeometry>
        </mxCell>
        <mxCell id="4qRLbiXL7dvZ6mp7pHiN-63" value="" style="endArrow=classic;html=1;rounded=0;fontFamily=Helvetica;fontSize=30;fontColor=default;entryX=1;entryY=0.5;entryDx=0;entryDy=0;" edge="1" parent="4qRLbiXL7dvZ6mp7pHiN-77">
          <mxGeometry width="50" height="50" relative="1" as="geometry">
            <mxPoint x="1402.5878003696857" y="1405.9255263157895" as="sourcePoint" />
            <mxPoint x="1327.449168207024" y="1405.9255263157895" as="targetPoint" />
          </mxGeometry>
        </mxCell>
        <mxCell id="4qRLbiXL7dvZ6mp7pHiN-64" value="" style="endArrow=classic;html=1;rounded=0;fontFamily=Helvetica;fontSize=30;fontColor=default;entryX=1;entryY=0.5;entryDx=0;entryDy=0;" edge="1" parent="4qRLbiXL7dvZ6mp7pHiN-77">
          <mxGeometry width="50" height="50" relative="1" as="geometry">
            <mxPoint x="1402.5878003696857" y="1576.643684210526" as="sourcePoint" />
            <mxPoint x="1327.449168207024" y="1576.643684210526" as="targetPoint" />
          </mxGeometry>
        </mxCell>
        <mxCell id="4qRLbiXL7dvZ6mp7pHiN-65" value="" style="group;fontSize=30;" vertex="1" connectable="0" parent="4qRLbiXL7dvZ6mp7pHiN-77">
          <mxGeometry width="350.64695009242143" height="127.89473684210526" as="geometry" />
        </mxCell>
        <mxCell id="4qRLbiXL7dvZ6mp7pHiN-66" value="" style="endArrow=none;html=1;rounded=0;fontFamily=Helvetica;fontSize=30;fontColor=default;" edge="1" parent="4qRLbiXL7dvZ6mp7pHiN-65">
          <mxGeometry width="50" height="50" relative="1" as="geometry">
            <mxPoint x="300.55452865064694" y="63.3078947368422" as="sourcePoint" />
            <mxPoint x="350.64695009242143" y="63.3078947368422" as="targetPoint" />
          </mxGeometry>
        </mxCell>
        <mxCell id="4qRLbiXL7dvZ6mp7pHiN-67" value="" style="endArrow=classic;html=1;rounded=0;fontFamily=Helvetica;fontSize=30;fontColor=default;" edge="1" parent="4qRLbiXL7dvZ6mp7pHiN-65">
          <mxGeometry width="50" height="50" relative="1" as="geometry">
            <mxPoint x="300.55452865064694" y="21.31578947368421" as="sourcePoint" />
            <mxPoint x="225.41589648798524" y="21.31578947368421" as="targetPoint" />
          </mxGeometry>
        </mxCell>
        <mxCell id="4qRLbiXL7dvZ6mp7pHiN-68" value="" style="endArrow=classic;html=1;rounded=0;fontFamily=Helvetica;fontSize=30;fontColor=default;" edge="1" parent="4qRLbiXL7dvZ6mp7pHiN-65">
          <mxGeometry width="50" height="50" relative="1" as="geometry">
            <mxPoint x="300.55452865064694" y="106.57894736842105" as="sourcePoint" />
            <mxPoint x="225.41589648798524" y="106.57894736842105" as="targetPoint" />
          </mxGeometry>
        </mxCell>
        <mxCell id="4qRLbiXL7dvZ6mp7pHiN-69" value="Filrae" style="rounded=1;whiteSpace=wrap;html=1;pointerEvents=0;align=center;verticalAlign=middle;fontFamily=Helvetica;fontSize=30;fillColor=#e1d5e7;strokeColor=#9673a6;strokeWidth=2;" vertex="1" parent="4qRLbiXL7dvZ6mp7pHiN-65">
          <mxGeometry width="225.41589648798524" height="42.63157894736842" as="geometry" />
        </mxCell>
        <mxCell id="4qRLbiXL7dvZ6mp7pHiN-70" value="Iver Blade" style="rounded=1;whiteSpace=wrap;html=1;pointerEvents=0;align=center;verticalAlign=middle;fontFamily=Helvetica;fontSize=30;fillColor=#e1d5e7;strokeColor=#9673a6;strokeWidth=2;" vertex="1" parent="4qRLbiXL7dvZ6mp7pHiN-65">
          <mxGeometry y="85.26315789473684" width="225.41589648798524" height="42.63157894736842" as="geometry" />
        </mxCell>
        <mxCell id="4qRLbiXL7dvZ6mp7pHiN-71" value="" style="group;fontSize=30;" vertex="1" connectable="0" parent="4qRLbiXL7dvZ6mp7pHiN-65">
          <mxGeometry x="300.55452865064694" y="21.31578947368421" height="85.26315789473684" as="geometry" />
        </mxCell>
        <mxCell id="4qRLbiXL7dvZ6mp7pHiN-72" value="" style="endArrow=none;html=1;rounded=0;fontFamily=Helvetica;fontSize=30;fontColor=default;" edge="1" parent="4qRLbiXL7dvZ6mp7pHiN-71">
          <mxGeometry width="50" height="50" relative="1" as="geometry">
            <mxPoint y="42.63157894736842" as="sourcePoint" />
            <mxPoint as="targetPoint" />
          </mxGeometry>
        </mxCell>
        <mxCell id="4qRLbiXL7dvZ6mp7pHiN-73" value="" style="endArrow=none;html=1;rounded=0;fontFamily=Helvetica;fontSize=30;fontColor=default;" edge="1" parent="4qRLbiXL7dvZ6mp7pHiN-71">
          <mxGeometry width="50" height="50" relative="1" as="geometry">
            <mxPoint y="85.26315789473684" as="sourcePoint" />
            <mxPoint y="42.63157894736842" as="targetPoint" />
            <Array as="points">
              <mxPoint y="42.63157894736842" />
            </Array>
          </mxGeometry>
        </mxCell>
        <mxCell id="4qRLbiXL7dvZ6mp7pHiN-74" value="" style="group;fontSize=30;" vertex="1" connectable="0" parent="4qRLbiXL7dvZ6mp7pHiN-77">
          <mxGeometry y="170.52631578947367" width="225.41589648798524" height="42.63157894736842" as="geometry" />
        </mxCell>
        <mxCell id="4qRLbiXL7dvZ6mp7pHiN-75" value="Kyle" style="whiteSpace=wrap;html=1;rounded=1;fillColor=#e1d5e7;strokeColor=#9673a6;strokeWidth=2;fontSize=30;" vertex="1" parent="4qRLbiXL7dvZ6mp7pHiN-74">
          <mxGeometry width="225.41589648798524" height="42.63157894736842" as="geometry" />
        </mxCell>
        <mxCell id="4qRLbiXL7dvZ6mp7pHiN-76" value="" style="edgeStyle=orthogonalEdgeStyle;rounded=0;orthogonalLoop=1;jettySize=auto;html=1;fontFamily=Helvetica;fontSize=30;fontColor=default;" edge="1" parent="4qRLbiXL7dvZ6mp7pHiN-77" source="4qRLbiXL7dvZ6mp7pHiN-10" target="4qRLbiXL7dvZ6mp7pHiN-75">
          <mxGeometry relative="1" as="geometry" />
        </mxCell>
      </root>
    </mxGraphModel>
  </diagram>
</mxfile>
